<svg xmlns="http://www.w3.org/2000/svg" viewBox="0 0 600 400">
  <defs>
    <linearGradient id="mh-bg" x1="0%" y1="0%" x2="100%" y2="100%">
      <stop offset="0%" stop-color="#060916"/>
      <stop offset="50%" stop-color="#0a0f22"/>
      <stop offset="100%" stop-color="#0e1530"/>
    </linearGradient>
    <linearGradient id="mh-blue" x1="0%" y1="0%" x2="100%" y2="0%">
      <stop offset="0%" stop-color="#3b5bdb" stop-opacity="0.10"/>
      <stop offset="100%" stop-color="#3b5bdb" stop-opacity="0"/>
    </linearGradient>
  </defs>
  <rect width="600" height="400" fill="url(#mh-bg)"/>
  <rect x="0" y="0" width="320" height="400" fill="url(#mh-blue)"/>
  <!-- Calm wave lines -->
  <path d="M0 310 Q80 295 160 308 Q240 322 320 308 Q400 294 480 308 Q540 318 600 308" fill="none" stroke="rgba(59,91,219,0.12)" stroke-width="1.5"/>
  <path d="M0 326 Q80 311 160 324 Q240 338 320 324 Q400 310 480 324 Q540 334 600 324" fill="none" stroke="rgba(59,91,219,0.08)" stroke-width="1.5"/>
  <path d="M0 342 Q80 327 160 340 Q240 354 320 340 Q400 326 480 340 Q540 350 600 340" fill="none" stroke="rgba(59,91,219,0.05)" stroke-width="1.5"/>
  <line x1="200" y1="0" x2="200" y2="400" stroke="rgba(255,255,255,0.02)" stroke-width="1"/>
  <line x1="400" y1="0" x2="400" y2="400" stroke="rgba(255,255,255,0.02)" stroke-width="1"/>
  <rect x="0" y="0" width="5" height="400" fill="#C5A55A"/>
  <rect x="30" y="104" width="44" height="2" fill="#C5A55A" opacity="0.7"/>
  <text x="30" y="122" font-family="'Inter','Helvetica Neue',Arial,sans-serif" font-size="11" font-weight="700" fill="#C5A55A" letter-spacing="3">MENTAL HEALTH</text>
  <text x="30" y="190" font-family="'Inter','Helvetica Neue',Arial,sans-serif" font-size="44" font-weight="800" fill="#ffffff" letter-spacing="-1">RESOURCES</text>
  <text x="30" y="234" font-family="'Inter','Helvetica Neue',Arial,sans-serif" font-size="24" font-weight="600" fill="rgba(255,255,255,0.72)">Beyond the Crisis Line</text>
  <text x="30" y="272" font-family="'Inter','Helvetica Neue',Arial,sans-serif" font-size="13" font-weight="400" fill="rgba(255,255,255,0.36)">Therapy · Peer groups · Apps · Ongoing support</text>
</svg>
