<svg xmlns="http://www.w3.org/2000/svg" viewBox="0 0 600 400">
  <defs>
    <linearGradient id="sb-bg" x1="0%" y1="0%" x2="100%" y2="100%">
      <stop offset="0%" stop-color="#07080f"/>
      <stop offset="55%" stop-color="#0c0f20"/>
      <stop offset="100%" stop-color="#111530"/>
    </linearGradient>
    <linearGradient id="sb-fade" x1="0%" y1="0%" x2="100%" y2="0%">
      <stop offset="0%" stop-color="#C5A55A" stop-opacity="0.09"/>
      <stop offset="100%" stop-color="#C5A55A" stop-opacity="0"/>
    </linearGradient>
  </defs>
  <rect width="600" height="400" fill="url(#sb-bg)"/>
  <rect x="0" y="0" width="300" height="400" fill="url(#sb-fade)"/>
  <!-- Dot grid pattern -->
  <circle cx="440" cy="100" r="1.5" fill="rgba(197,165,90,0.15)"/>
  <circle cx="470" cy="100" r="1.5" fill="rgba(197,165,90,0.15)"/>
  <circle cx="500" cy="100" r="1.5" fill="rgba(197,165,90,0.15)"/>
  <circle cx="530" cy="100" r="1.5" fill="rgba(197,165,90,0.15)"/>
  <circle cx="560" cy="100" r="1.5" fill="rgba(197,165,90,0.15)"/>
  <circle cx="440" cy="130" r="1.5" fill="rgba(197,165,90,0.12)"/>
  <circle cx="470" cy="130" r="1.5" fill="rgba(197,165,90,0.12)"/>
  <circle cx="500" cy="130" r="1.5" fill="rgba(197,165,90,0.12)"/>
  <circle cx="530" cy="130" r="1.5" fill="rgba(197,165,90,0.12)"/>
  <circle cx="560" cy="130" r="1.5" fill="rgba(197,165,90,0.12)"/>
  <circle cx="440" cy="160" r="1.5" fill="rgba(197,165,90,0.09)"/>
  <circle cx="470" cy="160" r="1.5" fill="rgba(197,165,90,0.09)"/>
  <circle cx="500" cy="160" r="1.5" fill="rgba(197,165,90,0.09)"/>
  <circle cx="530" cy="160" r="1.5" fill="rgba(197,165,90,0.09)"/>
  <circle cx="560" cy="160" r="1.5" fill="rgba(197,165,90,0.09)"/>
  <circle cx="440" cy="190" r="1.5" fill="rgba(197,165,90,0.07)"/>
  <circle cx="470" cy="190" r="1.5" fill="rgba(197,165,90,0.07)"/>
  <circle cx="500" cy="190" r="1.5" fill="rgba(197,165,90,0.07)"/>
  <circle cx="530" cy="190" r="1.5" fill="rgba(197,165,90,0.07)"/>
  <circle cx="560" cy="190" r="1.5" fill="rgba(197,165,90,0.07)"/>
  <rect x="0" y="0" width="5" height="400" fill="#C5A55A"/>
  <rect x="30" y="104" width="44" height="2" fill="#C5A55A" opacity="0.7"/>
  <text x="30" y="122" font-family="'Inter','Helvetica Neue',Arial,sans-serif" font-size="11" font-weight="700" fill="#C5A55A" letter-spacing="3">STATE BENEFITS</text>
  <text x="30" y="185" font-family="'Inter','Helvetica Neue',Arial,sans-serif" font-size="46" font-weight="800" fill="#ffffff" letter-spacing="-1">50 STATES.</text>
  <text x="30" y="234" font-family="'Inter','Helvetica Neue',Arial,sans-serif" font-size="28" font-weight="700" fill="rgba(255,255,255,0.80)">FIND YOUR BENEFITS.</text>
  <text x="30" y="274" font-family="'Inter','Helvetica Neue',Arial,sans-serif" font-size="13" font-weight="400" fill="rgba(255,255,255,0.36)">Property tax · Education waivers · Hiring preferences</text>
</svg>
